<svg version="1.0" xmlns="http://www.w3.org/2000/svg"
 width="24.000000pt" height="26.000000pt" viewBox="0 0 24.000000 26.000000"
 preserveAspectRatio="xMidYMid meet">

<g transform="translate(0.000000,26.000000) scale(0.100000,-0.100000)"
fill="#000000" stroke="none">
<path d="M206 245 c-11 -8 -21 -21 -22 -29 -1 -8 -14 -30 -29 -49 -16 -22 -22
-38 -16 -42 6 -3 11 -1 11 6 0 6 15 32 33 58 54 74 57 82 23 56z"/>
<path d="M39 211 c-16 -16 -29 -35 -29 -43 1 -7 7 -1 16 14 8 15 27 34 42 42
15 9 21 15 14 16 -8 0 -27 -13 -43 -29z"/>
<path d="M106 174 c-34 -25 -53 -44 -43 -44 9 0 17 3 17 8 0 4 23 22 50 41 28
19 50 36 50 38 0 9 -21 -2 -74 -43z"/>
<path d="M210 195 c0 -5 5 -17 10 -25 5 -8 10 -10 10 -5 0 6 -5 17 -10 25 -5
8 -10 11 -10 5z"/>
<path d="M1 130 c0 -14 7 -36 15 -50 10 -17 13 -18 8 -5 -3 11 -10 34 -14 50
-7 27 -8 28 -9 5z"/>
<path d="M232 130 c0 -14 2 -19 5 -12 2 6 2 18 0 25 -3 6 -5 1 -5 -13z"/>
<path d="M67 87 c-15 -23 -35 -53 -45 -67 -13 -19 0 -13 53 24 109 77 120 86
102 86 -8 0 -17 -4 -19 -8 -6 -14 -78 -65 -84 -59 -4 3 4 20 16 36 12 17 18
31 13 31 -4 0 -21 -19 -36 -43z"/>
<path d="M215 79 c-4 -11 -21 -29 -38 -40 -18 -10 -26 -19 -19 -19 16 0 72 54
72 69 0 18 -8 13 -15 -10z"/>
</g>
</svg>